<svg width="64" height="64" viewBox="0 0 64 64" fill="none" xmlns="http://www.w3.org/2000/svg">
<path d="M46.1653 10.7989C46.1653 9.95935 45.4842 9.27892 44.6453 9.27892C43.8057 9.27892 43.1253 9.95935 43.1253 10.7989V13.6681C42.7905 13.4946 42.4488 13.3366 42.1039 13.1939V5.9358C42.1039 5.09623 41.4228 4.4158 40.5839 4.4158C39.7443 4.4158 39.0639 5.09623 39.0639 5.9358V12.2851C38.7189 12.2153 38.3778 12.1566 38.0411 12.1066V4.71992C38.0411 3.88099 37.3614 3.20056 36.5211 3.20056C35.6822 3.20056 35.0011 3.88099 35.0011 4.71992V11.8533C34.6364 11.8455 34.2984 11.8462 33.9926 11.852V7.45515C33.9926 6.61558 33.313 5.93579 32.4733 5.93579C31.6337 5.93579 30.9533 6.61536 30.9533 7.45515V17.1026L29.9432 18.1126L26.9563 15.1264C26.363 14.5324 25.4005 14.5324 24.8072 15.1264C24.2138 15.7197 24.2138 16.6822 24.8072 17.2756L30.9586 23.426C30.6272 35.7097 20.532 45.6014 8.16984 45.6014C7.33027 45.6014 6.64984 46.2819 6.64984 47.1214C6.64984 47.961 7.33027 48.6408 8.16984 48.6408C22.4157 48.6408 34.0061 37.0509 34.0061 22.8045C34.0061 22.4014 33.8461 22.0154 33.5613 21.73L32.0926 20.2612L33.0378 19.316C34.1789 19.4881 36.6468 20.0929 37.8628 22.1744C38.1451 22.6581 38.6538 22.9283 39.1768 22.9283C39.4366 22.9283 39.7003 22.861 39.9416 22.7204C40.6668 22.2967 40.9105 21.3662 40.488 20.6416C38.7953 17.7456 35.7943 16.7421 33.9931 16.3952V14.8931C34.7446 14.8777 35.7506 14.8944 36.8654 15.016C38.7718 15.226 41.3327 15.7944 43.1251 17.2816V22.8043C43.1251 42.0784 27.4446 57.759 8.17044 57.759C7.33087 57.759 6.65044 58.4394 6.65044 59.279C6.65044 60.1183 7.33023 60.8006 8.1698 60.8006C29.1197 60.8006 46.165 43.7553 46.165 22.8059L46.1653 10.7989Z" fill="currentColor"/>
<path d="M49.521 33.6005C49.3937 33.6005 49.2625 33.5851 49.1325 33.5526C48.275 33.3389 47.7539 32.4703 47.9677 31.6128C48.6825 28.7483 49.0454 25.7851 49.0454 22.8054V16.6096C49.0454 15.7259 49.7617 15.0096 50.6454 15.0096C51.5291 15.0096 52.2454 15.7259 52.2454 16.6096V22.8054C52.2454 26.0458 51.8518 29.2699 51.0729 32.3883C50.8912 33.1146 50.2385 33.601 49.521 33.601L49.521 33.6005Z" fill="currentColor"/>
<path d="M54.624 33.6005C54.4954 33.6005 54.3654 33.5851 54.2354 33.5526C53.378 33.3382 52.8569 32.4696 53.0706 31.6128C53.8854 28.3463 54.1484 26.2053 54.1484 22.8053C54.1484 21.9216 54.8646 21.2053 55.7484 21.2053C56.6321 21.2053 57.3484 21.9216 57.3484 22.8053C57.3484 26.4578 57.0521 28.8757 56.1759 32.3883C55.9923 33.1151 55.3402 33.6009 54.624 33.6009L54.624 33.6005Z" fill="currentColor"/>
</svg>
