<svg width="96" height="96" viewBox="0 0 96 96" fill="none" xmlns="http://www.w3.org/2000/svg">
<path d="M74.76 20.5201C74.52 20.5201 74.16 20.4001 73.92 20.1601C73.44 19.6801 73.44 18.9601 73.8 18.4801L83.64 7.44009C84.12 6.96009 84.84 6.96009 85.32 7.32009C85.8 7.80009 85.8 8.52009 85.44 9.00009L75.6 20.0401C75.36 20.2801 75.12 20.5201 74.76 20.5201Z" fill="black"/>
<path d="M70.56 15.96C70.44 15.96 70.32 15.96 70.08 15.84C69.48 15.6 69.12 14.88 69.36 14.28L72.96 5.04005C73.2 4.44005 73.92 4.08005 74.52 4.32005C75.12 4.56005 75.48 5.28005 75.24 5.88005L71.64 15.12C71.4 15.6 71.04 15.96 70.56 15.96Z" fill="black"/>
<path d="M16.68 29.04C16.32 29.04 16.08 28.92 15.84 28.68L6.48 19.08C6 18.6 6 17.88 6.48 17.4C6.96 16.92 7.68 16.92 8.16 17.4L17.52 27C18 27.48 18 28.2 17.52 28.68C17.28 28.92 17.04 29.04 16.68 29.04Z" fill="black"/>
<path d="M14.04 33.72C13.92 33.72 13.68 33.72 13.56 33.6L5.52 29.76C4.92 29.52 4.68 28.8 4.92 28.2C5.16 27.6 5.88 27.36 6.48 27.6L14.52 31.44C15.12 31.68 15.36 32.4 15.12 33C14.88 33.48 14.52 33.72 14.04 33.72Z" fill="black"/>
<path d="M89.52 31.6801C88.08 30.3601 85.92 29.7601 83.88 30.4801C81.84 31.0801 80.52 32.7601 80.16 35.0401L77.52 46.4401C77.4 46.6801 77.16 46.9201 76.92 46.9201C76.68 46.9201 76.32 46.8001 76.2 46.5601L74.04 41.5201L74.76 40.3201C76.44 37.6801 75.72 34.3201 72.96 32.4001C72 31.8001 70.92 31.3201 69.72 31.3201L67.68 26.4001C67.8 25.3201 67.44 24.1201 66.84 23.1601C66.48 22.6801 66.12 22.2001 65.64 21.7201L60.48 8.40009C59.28 5.52009 57.12 4.20009 54.84 5.16009C52.92 5.88009 51.36 8.16009 52.2 10.5601L56.28 22.5601C56.16 22.6801 56.04 22.9201 55.92 23.1601L53.76 26.8801L52.8 24.9601C53.4 21.7201 51.24 18.9601 48.72 17.8801L43.92 9.48009C42.96 7.68009 41.52 7.20009 40.44 7.20009C38.88 7.20009 37.32 8.04009 36.48 9.36009C36.12 10.0801 35.52 11.5201 36.6 13.3201L40.8 21.0001C40.56 21.3601 40.44 21.7201 40.2 22.2001L38.64 26.0401L35.28 21.6001C33.24 18.9601 30.84 19.0801 29.4 20.1601C27.96 21.1201 27 23.2801 28.2 25.0801L34.92 35.1601L32.4 41.1601L27.96 37.4401C25.92 35.7601 24 36.1201 22.92 37.2001C21.96 38.1601 21.48 40.0801 23.04 41.7601C23.28 42.0001 26.28 44.5201 29.64 47.7601L27.6 52.6801L26.4 47.5201C25.8 44.5201 23.88 42.2401 21.24 41.2801C18.6 40.4401 15.6 41.0401 13.56 42.9601C11.4 45.0001 10.68 48.1201 11.52 51.4801C11.88 52.8001 12.24 54.3601 12.6 55.8001C14.76 64.6801 17.28 74.6401 21.72 81.7201C25.32 87.3601 32.4 91.4401 38.4 91.4401C39.12 91.4401 39.84 91.4401 40.44 91.3201C45.84 90.3601 52.32 87.8401 59.88 77.5201C60.96 77.8801 62.16 78.1201 63.24 78.3601C63.84 78.4801 64.44 78.4801 65.04 78.4801C70.44 78.4801 77.16 74.6401 80.52 69.3601C85.08 62.1601 87.6 51.7201 89.88 42.6001L90 42.0001C90.36 40.5601 90.72 39.2401 90.96 38.0401C91.56 35.5201 91.08 33.1201 89.52 31.6801ZM76.8 53.8801C75.6 54.9601 63.6 65.5201 60.36 70.3201C58.92 72.6001 57.6 74.6401 56.28 76.3201C55.92 76.8001 55.44 77.2801 55.08 77.7601C55.08 77.7601 55.08 77.8801 54.96 77.8801C52.92 80.2801 51.12 82.2001 49.32 83.5201C48.96 83.7601 48.72 84.0001 48.36 84.2401L48.24 84.3601C47.88 84.6001 47.64 84.8401 47.28 84.9601C47.28 84.9601 47.16 84.9601 47.16 85.0801C46.2 85.6801 45.24 86.1601 44.4 86.5201C44.4 86.5201 44.28 86.5201 44.28 86.6401C44.04 86.7601 43.8 86.7601 43.56 86.8801C43.44 86.8801 43.32 87.0001 43.2 87.0001C42.96 87.1201 42.84 87.1201 42.6 87.2401C42.48 87.2401 42.24 87.3601 42.12 87.3601C42 87.3601 41.76 87.4801 41.64 87.4801C41.4 87.4801 41.28 87.6001 41.04 87.6001C40.92 87.6001 40.8 87.7201 40.68 87.7201C40.32 87.8401 39.96 87.8401 39.72 87.9601C34.8 88.8001 27.96 85.2001 24.72 80.0401C20.52 73.4401 18.12 63.7201 16.08 55.2001C15.72 53.7601 15.36 52.2001 15 50.8801C14.4 48.7201 14.76 46.9201 15.96 45.8401C16.68 45.1201 17.76 44.7601 18.84 44.7601C19.32 44.7601 19.68 44.8801 20.16 45.0001C21.6 45.4801 22.56 46.6801 22.92 48.4801L25.32 59.1601C25.44 59.8801 26.16 60.4801 26.88 60.6001C27.72 60.6001 28.44 60.2401 28.68 59.5201L36.84 39.8401L37.2 38.8801L41.16 29.4001L42 27.3601L43.56 23.5201C44.4 21.3601 45.84 20.5201 47.4 21.1201C48.72 21.6001 49.8 23.1601 49.2 24.7201L41.4 47.4001L41.04 48.3601L40.68 49.4401C40.32 50.2801 40.8 51.2401 41.64 51.7201C42.48 52.0801 43.44 51.8401 43.92 51.0001L49.8 40.8001L50.52 39.6001L57.48 27.6001L57.84 27.0001L59.16 24.8401C59.64 23.8801 60.48 23.4001 61.32 23.4001C62.4 23.4001 63.48 24.0001 63.96 24.8401C64.44 25.6801 64.32 26.5201 63.84 27.4801L60.24 34.0801L59.52 35.2801L49.56 53.5201C49.08 54.3601 49.32 55.4401 50.16 55.9201C51 56.4001 51.96 56.2801 52.56 55.4401L66.96 36.4801C68.16 34.9201 69.6 34.4401 70.92 35.4001C71.88 36.0001 72.48 37.3201 71.76 38.4001L56.64 61.2001C56.16 61.9201 56.28 63.0001 56.88 63.4801C57.48 63.9601 58.56 64.0801 59.28 63.4801L73.68 51.4801C75.12 50.2801 76.2 50.5201 76.92 51.2401C77.52 51.8401 77.76 52.8001 76.8 53.8801Z" fill="black"/>
</svg>
