<?xml version="1.0" encoding="UTF-8"?>
<svg width="128pt" height="128pt" version="1.1" viewBox="0 0 128 128" xmlns="http://www.w3.org/2000/svg">
 <g fill="currentColor">
  <path d="m103.25 2.3516c-0.18359-1.4258-2.2539-1.4258-2.4336 0-1.4141 11.094-10.148 19.824-21.242 21.242-1.4297 0.18359-1.4297 2.2539 0 2.4336 11.09 1.4141 19.824 10.148 21.242 21.242 0.17969 1.4297 2.25 1.4297 2.4336 0 1.4141-11.09 10.145-19.824 21.242-21.242 1.4297-0.17969 1.4297-2.25 0-2.4336-11.094-1.4141-19.824-10.145-21.242-21.242z"/>
  <path d="m52.219 29.996c-0.32812-2.5742-4.0547-2.5742-4.3867 0-2.9766 23.301-21.32 41.648-44.625 44.621-2.5742 0.32812-2.5742 4.0586 0 4.3867 23.305 2.9766 41.648 21.324 44.625 44.625 0.32812 2.5742 4.0547 2.5742 4.3867 0 2.9688-23.301 21.32-41.648 44.625-44.625 2.5703-0.32422 2.5703-4.0547 0-4.3867-23.305-2.9688-41.656-21.32-44.625-44.621z"/>
 </g>
</svg>
