<svg width="42" height="42" viewBox="0 0 42 42" fill="none" xmlns="http://www.w3.org/2000/svg">
<path d="M30 7.5C28.8065 7.5 27.6619 7.97411 26.818 8.81802C25.9741 9.66193 25.5 10.8065 25.5 12V30C25.5 31.1935 25.9741 32.3381 26.818 33.182C27.6619 34.0259 28.8065 34.5 30 34.5C31.1935 34.5 32.3381 34.0259 33.182 33.182C34.0259 32.3381 34.5 31.1935 34.5 30C34.5 28.8065 34.0259 27.6619 33.182 26.818C32.3381 25.9741 31.1935 25.5 30 25.5H12C10.8065 25.5 9.66193 25.9741 8.81802 26.818C7.97411 27.6619 7.5 28.8065 7.5 30C7.5 31.1935 7.97411 32.3381 8.81802 33.182C9.66193 34.0259 10.8065 34.5 12 34.5C13.1935 34.5 14.3381 34.0259 15.182 33.182C16.0259 32.3381 16.5 31.1935 16.5 30V12C16.5 10.8065 16.0259 9.66193 15.182 8.81802C14.3381 7.97411 13.1935 7.5 12 7.5C10.8065 7.5 9.66193 7.97411 8.81802 8.81802C7.97411 9.66193 7.5 10.8065 7.5 12C7.5 13.1935 7.97411 14.3381 8.81802 15.182C9.66193 16.0259 10.8065 16.5 12 16.5H30C31.1935 16.5 32.3381 16.0259 33.182 15.182C34.0259 14.3381 34.5 13.1935 34.5 12C34.5 10.8065 34.0259 9.66193 33.182 8.81802C32.3381 7.97411 31.1935 7.5 30 7.5Z" stroke="currentColor" stroke-width="2" stroke-linecap="round" stroke-linejoin="round"/>
</svg>
