<svg id="icon" xmlns="http://www.w3.org/2000/svg" viewBox="0 0 24 24" width="24" height="24" fill="none">
  <path d="M18 4.5C17.4033 4.5 16.8309 4.73705 16.409 5.15901C15.9871 5.58097 15.75 6.15326 15.75 6.75V18C15.75 18.5967 15.9871 19.169 16.409 19.591C16.8309 20.0129 17.4033 20.25 18 20.25C18.5967 20.25 19.169 20.0129 19.591 19.591C20.0129 19.169 20.25 18.5967 20.25 18C20.25 17.4033 20.0129 16.8309 19.591 16.409C19.169 15.9871 18.5967 15.75 18 15.75H7.5C6.90326 15.75 6.33097 15.9871 5.90901 16.409C5.48705 16.8309 5.25 17.4033 5.25 18C5.25 18.5967 5.48705 19.169 5.90901 19.591C6.33097 20.0129 6.90326 20.25 7.5 20.25C8.09674 20.25 8.66903 20.0129 9.09099 19.591C9.51295 19.169 9.75 18.5967 9.75 18V7.5C9.75 6.90326 9.51295 6.33097 9.09099 5.90901C8.66903 5.48705 8.09674 5.25 7.5 5.25C6.90326 5.25 6.33097 5.48705 5.90901 5.90901C5.48705 6.33097 5.25 6.90326 5.25 7.5C5.25 8.09674 5.48705 8.66903 5.90901 9.09099C6.33097 9.51295 6.90326 9.75 7.5 9.75H18C18.5967 9.75 19.169 9.51295 19.591 9.09099C20.0129 8.66903 20.25 8.09674 20.25 7.5C20.25 6.90326 20.0129 6.33097 19.591 5.90901C19.169 5.48705 18.5967 5.25 18 4.5Z" stroke="currentColor" stroke-width="2" stroke-linecap="round" stroke-linejoin="round"/>
</svg>