<?xml version="1.0" encoding="UTF-8"?>
<svg width="28" height="28" version="1.1" viewBox="0 0 1200 1200" xmlns="http://www.w3.org/2000/svg">
 <path fill="currentColor" stroke="currentColor" d="m200.25 814.88c7.5 7.125 19.125 6.75 26.25-0.375l188.62-188.62c-1.125-8.625-2.625-16.875-2.625-25.875 0-103.5 84-187.5 187.5-187.5 9 0 17.25 1.5 25.875 2.625l137.62-137.62c10.125-10.125 6-27.375-7.875-31.5-73.5-20.25-152.25-26.625-232.5-16.125-174.75 22.875-328.12 129-421.12 278.62l-1.5 2.25c-16.5 26.625-25.5 57.75-25.5 89.25s9 62.625 25.5 89.25l8.625 13.875c25.875 41.625 56.625 78.75 91.125 111.75z"/>
 <path fill="currentColor" stroke="currentColor" d="m1099.5 510.75-8.625-13.875c-43.125-69-99.75-126-164.62-170.25l150-150c14.625-14.625 14.625-38.25 0-52.875s-38.25-14.625-52.875 0l-900 900c-14.625 14.625-14.625 38.25 0 52.875 7.5 7.125 16.875 10.875 26.625 10.875s19.125-3.75 26.625-10.875l163.12-163.12c79.125 39.75 167.62 61.5 260.25 61.5 201 0 384.38-101.62 490.88-271.88l8.625-13.875c16.5-26.625 25.5-57.75 25.5-89.25s-9-62.625-25.5-89.25zm-499.5 276.75c-38.25 0-73.5-11.625-103.12-31.125l259.5-259.5c19.5 29.625 31.125 64.875 31.125 103.12 0 103.5-84 187.5-187.5 187.5z"/>
</svg>
