<?xml version="1.0" encoding="UTF-8"?>
<svg width="28" height="28" version="1.1" viewBox="0 0 1200 1200" xmlns="http://www.w3.org/2000/svg">
 <path  fill="currentColor" stroke="currentColor" d="m954.61 398.06c59.766 76.406 95.391 172.55 95.391 276.94 0 248.34-201.66 450-450 450s-450-201.66-450-450c0-235.74 181.64-429.37 412.5-448.45v-76.547h-75c-20.719 0-37.5-16.781-37.5-37.5s16.781-37.5 37.5-37.5h225c20.719 0 37.5 16.781 37.5 37.5s-16.781 37.5-37.5 37.5h-75v76.547c48.141 3.9844 94.219 15.562 136.87 33.562l51.984-51.984c43.875-43.922 115.17-43.922 159.05 0 43.922 43.922 43.922 115.22 0 159.1zm-392.11 101.72v175.22c0 8.1094 2.625 16.031 7.5 22.5l112.5 150c12.422 16.594 35.906 19.922 52.5 7.5s19.922-35.906 7.5-52.5l-105-139.97v-162.74c0-20.672-16.781-37.5-37.5-37.5s-37.5 16.828-37.5 37.5z" fill-rule="evenodd"/>
</svg>
